<svg xmlns="http://www.w3.org/2000/svg" width="200" height="201" viewBox="0 0 200 201" fill="none">
<g clip-path="url(#clip0_714_1929)">
<path d="M35.0948 162.221C37.5022 162.995 42.804 163.669 47.6392 164.158C48.1261 163.339 48.5051 162.461 48.767 161.545C49.567 158.582 49.9355 153.601 49.9355 153.601H41.6225C39.617 153.601 32.1392 153.415 30.8466 155.325C29.554 157.234 30.1077 160.621 35.0948 162.221Z" fill="#1F1F1F" stroke="#1F1F1F" stroke-linecap="round" stroke-linejoin="round"/>
<path d="M109.67 126.811C109.731 126.874 109.798 126.935 109.869 126.996C114.193 125.633 116.739 124.063 115.459 120.65C114.719 119.239 111.2 117.687 104.5 116.285C104.631 116.585 108.7 125.843 109.67 126.811Z" fill="#1F1F1F" stroke="#1F1F1F" stroke-linecap="round" stroke-linejoin="round"/>
<path d="M101.261 115.663L100.467 115.524V115.534C100.746 115.586 101.008 115.621 101.261 115.663Z" fill="#1F1F1F" stroke="#1F1F1F" stroke-linecap="round" stroke-linejoin="round"/>
<path d="M56.3409 72.8671C56.5705 70.4597 55.7279 67.4023 53.4168 67.7986C53.2464 67.8412 53.0705 67.8875 52.8927 67.9393C50.0853 68.7708 48.4575 72.4967 45.7483 77.793C43.039 83.0893 45.1335 89.7393 47.7186 91.4634C49.0372 92.343 50.739 92.3467 52.7612 91.1393C53.9075 88.7986 56.102 75.3671 56.3409 72.8671Z" fill="#1F1F1F" stroke="#1F1F1F" stroke-linecap="round" stroke-linejoin="round"/>
<path d="M56.341 72.8668C56.4106 72.1284 56.3801 71.384 56.2503 70.6538C52.4132 72.226 47.8021 73.9871 47.8021 73.9871C47.8021 73.9871 59.7947 49.0742 60.8984 48.1168C64.1614 45.2834 68.8781 39.5816 70.6281 36.7242C72.4799 33.7057 73.091 32.7816 72.9058 32.0427C72.6077 30.8464 71.4892 31.0575 70.0114 32.2279C67.9355 33.8723 64.3466 36.9075 64.3466 36.9075C64.3466 36.9075 63.5466 32.1038 63.2355 30.3186C62.9244 28.5334 63.641 25.7427 64.8373 23.976C66.1336 22.0668 66.7466 20.7112 66.5614 19.7168C66.3762 18.7223 65.4503 18.5482 64.8373 18.8557C64.2244 19.1631 63.2355 20.3945 63.2355 20.3945C63.2355 20.3945 63.4207 19.376 62.8651 18.9131C62.1244 18.2982 61.141 18.7908 60.4577 19.4686C59.7744 20.1464 58.4873 21.876 58.4873 21.876C58.4873 21.876 58.7947 20.4594 58.0558 20.0908C57.317 19.7223 56.3318 20.1519 55.1614 21.3871C53.991 22.6223 51.7299 25.3871 51.5984 30.5594C51.467 35.7316 52.2762 39.6112 51.8447 42.7519C51.4207 45.8464 49.8781 47.4945 48.0262 50.0186C46.1744 52.5427 29.9225 72.4964 23.8262 82.9649C19.0114 91.2279 20.254 97.0686 25.7355 97.7445C31.0762 98.4057 47.5873 90.9945 53.554 88.5649C54.7114 83.8445 56.1503 74.8649 56.341 72.8668Z" fill="#DBA77F" stroke="#1F1F1F" stroke-linecap="round" stroke-linejoin="round"/>
<path d="M71.5427 31.2671C75.0068 31.2671 77.815 28.4589 77.815 24.9949C77.815 21.5308 75.0068 18.7227 71.5427 18.7227C68.0787 18.7227 65.2705 21.5308 65.2705 24.9949C65.2705 28.4589 68.0787 31.2671 71.5427 31.2671Z" fill="white" stroke="#1F1F1F" stroke-linecap="round" stroke-linejoin="round"/>
<path d="M65.2705 24.9949C65.2703 24.171 65.4324 23.3551 65.7476 22.5939C66.0629 21.8327 66.525 21.1411 67.1077 20.5586C67.6904 19.976 68.3821 19.5141 69.1434 19.1991C69.9048 18.8841 70.7207 18.7222 71.5446 18.7227" stroke="#1F1F1F" stroke-linecap="round" stroke-linejoin="round"/>
<path d="M64.346 36.9023C63.483 37.3949 59.296 38.6894 56.833 41.5209" stroke="#1F1F1F" stroke-linecap="round" stroke-linejoin="round"/>
<path d="M63.2371 20.4004C62.0686 21.8171 60.4056 24.5263 59.7278 26.8059C58.8908 29.6189 59.1112 31.4245 59.1112 31.4245" stroke="#1F1F1F" stroke-linecap="round" stroke-linejoin="round"/>
<path d="M58.4968 21.8818C57.3857 23.7337 56.5264 25.3318 55.9042 27.4244C55.282 29.517 55.4116 32.2281 55.4116 32.2281" stroke="#1F1F1F" stroke-linecap="round" stroke-linejoin="round"/>
<path d="M47.8015 73.9814C46.6108 76.1907 44.8867 79.3944 44.8867 79.3944" stroke="#1F1F1F" stroke-linecap="round" stroke-linejoin="round"/>
<path d="M52.8928 67.939C55.6021 66.9538 56.5965 70.2797 56.341 72.8667C56.0854 75.4538 53.7484 89.739 52.6465 91.3408L56.4632 89.2464L51.415 110.8C51.415 110.8 68.6576 111.911 87.0076 113.763C105.358 115.615 114.23 118.32 115.459 120.661C115.459 120.661 113.608 111.67 110.902 101.448C110.902 101.448 118.785 99.3538 126.174 99.7223C133.563 100.091 136.397 101.324 137.259 102.926C137.259 102.926 130.608 89.5001 124.819 82.4797C119.03 75.4593 114.35 71.2723 109.424 69.0556C104.498 66.839 99.6928 64.1223 98.5817 61.4112C97.4706 58.7001 97.9669 54.6371 97.9669 54.6371L90.2076 53.0371C90.2076 53.0371 89.8373 56.3704 88.2373 58.7019C86.6373 61.0334 85.1576 62.5204 81.2169 62.8908C77.415 63.2464 69.3928 63.876 62.9873 64.9834C56.5817 66.0908 52.8928 67.939 52.8928 67.939Z" fill="white" stroke="#1F1F1F" stroke-linecap="round" stroke-linejoin="round"/>
<path d="M87.5001 74.9593C92.4278 76.9297 98.9315 76.2556 101.787 75.0834C105.187 73.6927 109.07 71.526 111.493 70.1056C110.805 69.713 110.115 69.3606 109.424 69.0482C104.507 66.8316 99.6926 64.1223 98.5815 61.4112C97.4704 58.7001 97.9667 54.6371 97.9667 54.6371L90.2075 53.0371C90.2075 53.0371 89.8371 56.3704 88.2371 58.7019C86.6371 61.0334 85.1575 62.5204 81.2167 62.8908C79.5297 63.0482 77.0149 63.2612 74.1797 63.5427C76.5612 66.5797 81.4741 72.5501 87.5001 74.9593Z" fill="#DBA77F" stroke="#1F1F1F" stroke-linecap="round" stroke-linejoin="round"/>
<path d="M110.902 101.441C109.917 96.0209 106.099 84.6895 106.099 84.6895" stroke="#1F1F1F" stroke-linecap="round" stroke-linejoin="round"/>
<path d="M137.071 102.545L137.256 102.916C136.393 101.314 133.552 100.082 126.171 99.7118C118.789 99.3415 110.898 101.438 110.898 101.438C111.558 103.923 112.165 106.334 112.708 108.562C117.508 109.775 122.453 110.32 127.402 110.182C133.315 110.058 137.871 107.841 137.871 105.132C137.874 104.462 137.71 103.753 137.071 102.545Z" fill="#1F1F1F" stroke="#1F1F1F" stroke-linecap="round" stroke-linejoin="round"/>
<path d="M142.7 141.309C138.4 124.337 131.774 104.148 129.922 99.839C128.95 99.7353 127.87 99.6539 126.666 99.5927C122.422 99.3798 118.015 99.9816 115.031 100.532C117.198 107.317 122.5 124.606 125.366 133.969C130.409 136.017 136.872 138.706 142.7 141.309Z" fill="#DBA77F" stroke="#1F1F1F" stroke-linecap="round" stroke-linejoin="round"/>
<path d="M93.2892 57.9637C88.967 57.0378 87.3781 53.7785 87.3781 49.5896C87.3781 46.5711 87.9337 42.8156 87.9337 42.8156C87.9337 42.8156 86.5818 39.9507 87.8114 35.4859C88.9818 31.2378 91.8337 31.0415 93.23 31.5452C94.954 32.1619 94.954 34.3785 94.954 34.3785C94.954 34.3785 97.2855 30.9915 101.36 30.2526C105.434 29.5137 106.878 31.41 106.717 33.8248C106.593 35.6767 104.808 37.4582 104.808 37.4582C104.808 37.4582 108.563 35.9767 109.241 38.3841C109.717 40.0711 108.81 41.9563 106.717 43.6193C105.953 44.2467 105.078 44.7253 104.137 45.0304C104.137 45.0304 103.039 50.5304 102.043 53.1582C100.31 57.7174 97.8411 58.9489 93.2892 57.9637Z" fill="#DBA77F" stroke="#1F1F1F" stroke-linecap="round" stroke-linejoin="round"/>
<path d="M87.9314 42.8082C87.561 41.9249 86.761 41.4119 86.2073 41.9453C85.6536 42.4786 85.7962 43.8749 85.9203 45.8453C86.0444 47.8156 86.4536 48.9656 87.2536 49.2119C87.295 49.224 87.3371 49.2339 87.3796 49.2416C87.4429 47.0885 87.6271 44.9406 87.9314 42.8082Z" fill="#DBA77F" stroke="#1F1F1F" stroke-linecap="round" stroke-linejoin="round"/>
<path d="M109.239 38.3798C108.561 35.9723 104.806 37.4538 104.806 37.4538C104.806 37.4538 106.591 35.6668 106.715 33.8205C106.876 31.4131 105.419 29.5094 101.358 30.2483C97.2965 30.9872 94.9521 34.3742 94.9521 34.3742C94.9521 34.3742 94.9521 32.152 93.228 31.5409C91.8317 31.0427 88.9799 31.2335 87.8095 35.4816C86.5799 39.9464 87.9317 42.8112 87.9317 42.8112C89.0428 43.3668 90.8262 42.5649 92.9817 41.2094C95.1373 39.8538 95.9447 39.0538 97.6613 39.1149C99.378 39.176 100.254 40.3483 100.68 41.6409C101.106 42.9335 101.85 44.9075 104.137 45.0298C105.083 44.7245 105.962 44.2439 106.73 43.6131C108.808 41.952 109.715 40.0668 109.239 38.3798Z" fill="#E64335" stroke="#1F1F1F" stroke-linecap="round" stroke-linejoin="round"/>
<path d="M104.724 44.8133C104.534 44.8977 104.337 44.9701 104.137 45.0299C104.137 45.0299 103.397 48.6911 102.597 51.467C102.805 51.4596 103.012 51.4279 103.213 51.3725C104.139 51.1262 105.554 48.9096 106.108 46.4466C106.545 44.4466 105.619 44.5188 104.724 44.8133Z" fill="#DBA77F" stroke="#1F1F1F" stroke-linecap="round" stroke-linejoin="round"/>
<path d="M99.6108 52.4205C97.8867 52.1131 97.8256 49.1576 95.3515 48.7668C92.8386 48.3724 91.3886 50.9427 89.8497 50.7576C88.8849 50.6427 88.0182 49.7853 87.3978 48.8279C87.3904 49.0847 87.3867 49.3384 87.3867 49.589C87.3867 53.7779 88.9756 57.0298 93.2978 57.9631C97.8552 58.9483 100.318 57.7168 102.042 53.1594C102.227 52.6742 102.413 52.089 102.598 51.4613C101.8 52.0242 100.679 52.6113 99.6108 52.4205Z" fill="#E64335" stroke="#1F1F1F" stroke-linecap="round" stroke-linejoin="round"/>
<path d="M95.3423 48.7675C94.2126 48.3582 93.6589 47.9879 94.0274 47.3712C94.396 46.7545 95.6756 46.0934 96.0645 43.6768" stroke="#1F1F1F" stroke-linecap="round" stroke-linejoin="round"/>
<path d="M100.166 45.9345C100.188 45.6921 100.108 45.4866 99.9868 45.4754C99.8656 45.4643 99.7492 45.6517 99.7269 45.8941C99.7046 46.1365 99.7848 46.3421 99.906 46.3532C100.027 46.3644 100.143 46.1769 100.166 45.9345Z" fill="#1F1F1F" stroke="#1F1F1F" stroke-linecap="round" stroke-linejoin="round"/>
<path d="M92.782 45.0156C92.8043 44.7732 92.7242 44.5677 92.603 44.5565C92.4818 44.5453 92.3655 44.7328 92.3431 44.9752C92.3208 45.2176 92.401 45.4231 92.5222 45.4343C92.6434 45.4454 92.7597 45.258 92.782 45.0156Z" fill="#1F1F1F" stroke="#1F1F1F" stroke-linecap="round" stroke-linejoin="round"/>
<path d="M93.5664 52.6982C93.8275 53.0834 94.9053 53.3908 95.6034 53.1445" stroke="#1F1F1F" stroke-linecap="round" stroke-linejoin="round"/>
<path d="M163.965 44.6465H124.489C122.836 44.647 121.25 45.3041 120.081 46.4733C118.911 47.6425 118.254 49.2281 118.254 50.8817V78.5724C118.254 80.2261 118.911 81.812 120.08 82.9814C121.249 84.1507 122.835 84.8076 124.489 84.8076H156.485L164.234 96.2798C166.034 98.9465 170.2 97.6724 170.2 94.4539V50.8817C170.2 49.2281 169.543 47.6425 168.373 46.4733C167.204 45.3041 165.619 44.647 163.965 44.6465Z" fill="#C4EED0" stroke="#C4EED0" stroke-miterlimit="10"/>
<path d="M118.254 67.3115V78.5726C118.254 80.2263 118.911 81.8123 120.08 82.9816C121.249 84.1509 122.835 84.8078 124.489 84.8078H156.485L162.75 94.1041" stroke="#1F1F1F" stroke-linecap="round" stroke-linejoin="round"/>
<path d="M170.2 56.1409V50.8817C170.2 49.2281 169.542 47.6425 168.373 46.4733C167.204 45.3041 165.618 44.647 163.965 44.6465" stroke="#1F1F1F" stroke-linecap="round" stroke-linejoin="round"/>
<path d="M148.311 61.6488C147.037 59.8858 143.827 59.3339 141.644 61.7802C139.781 63.8691 139.824 67.5321 142.265 68.6043C144.42 69.5525 147.75 67.8858 148.207 65.2414C148.6 62.971 148.533 63.8691 148.827 61.1265C148.827 61.1265 148.3 64.5413 148.665 66.221C149.155 68.4747 151.627 68.7969 153.366 67.2006C154.966 65.7321 155.685 61.2895 153.922 57.9913C151.815 54.0506 146.868 52.0154 141.774 53.7784C135.009 56.121 132.67 63.0062 133.74 68.2784C135.015 74.5488 142.459 77.5858 149.024 73.9599" stroke="#1F1F1F" stroke-linecap="round" stroke-linejoin="round"/>
<path d="M166.189 27.0488V38.3748" stroke="#1F1F1F" stroke-linecap="round" stroke-linejoin="round"/>
<path d="M181.247 33.2852L173.237 41.2944" stroke="#1F1F1F" stroke-linecap="round" stroke-linejoin="round"/>
<path d="M187.483 48.3447H176.157" stroke="#1F1F1F" stroke-linecap="round" stroke-linejoin="round"/>
<path d="M30.8468 155.324C32.6987 147.565 45.7487 98.7299 47.719 91.4632C49.6894 84.1966 54.1042 78.9484 60.0357 79.2095C67.0561 79.5169 72.5987 86.7836 76.2931 95.6521C78.648 101.399 80.6632 107.28 82.3283 113.263C88.7338 113.695 101.788 115.604 104.499 116.282C104.499 116.282 108.686 125.826 109.671 126.811C110.656 127.797 112.819 129.034 116.445 130.384C120.071 131.734 148.18 142.897 155.549 147.75C163.125 152.737 164.971 158.465 163.493 165.485C161.891 173.095 155.53 177.741 147.789 179.526C140.586 181.193 135.597 181.5 126.728 181.5H20.0635C20.7413 179.093 23.0783 178.167 26.7764 177.124C32.6876 175.458 39.2153 172.691 42.295 170.165C45.3746 167.639 47.9598 164.5 48.7616 161.545C49.5635 158.589 49.9301 153.6 49.9301 153.6H41.9931C37.4357 153.6 32.4468 153.476 30.8468 155.324Z" fill="#C2E7FF" stroke="#C2E7FF" stroke-linecap="round" stroke-linejoin="round"/>
<path d="M82.3281 113.264C83.4985 117.636 86.4541 129.091 86.4541 129.091" stroke="#1F1F1F" stroke-linecap="round" stroke-linejoin="round"/>
<path d="M63.5469 107.845L69.458 181.56" stroke="#1F1F1F" stroke-linecap="round" stroke-linejoin="round"/>
<path d="M146.126 162.16L92.92 151.075C90.5126 152.862 86.5145 158.28 85.5293 160.128" stroke="#1F1F1F" stroke-linecap="round" stroke-linejoin="round"/>
<path d="M67.7949 160.128H85.5301C82.082 166.163 77.1005 177.31 75.8616 181.497H69.4412L67.7949 160.125" fill="white"/>
<path d="M67.7949 160.128H85.5301C82.082 166.163 77.1005 177.31 75.8616 181.497H69.4412L67.7949 160.125" stroke="#1F1F1F" stroke-linecap="round" stroke-linejoin="round"/>
<path d="M67.2406 153.662C67.2406 153.662 52.2147 153.601 49.935 153.601C49.935 153.601 49.5647 158.588 48.7665 161.545C47.9684 164.502 45.3795 167.641 42.2998 170.165C39.2202 172.689 32.6924 175.462 26.7813 177.125C23.0776 178.165 20.7461 179.099 20.0684 181.501H69.4406C68.911 174.206 67.2406 153.662 67.2406 153.662Z" fill="white" stroke="#1F1F1F" stroke-linecap="round" stroke-linejoin="round"/>
<path d="M25.6319 181.475H12.4541" stroke="#1F1F1F" stroke-linecap="round" stroke-linejoin="round"/>
<path d="M49.9356 153.6H41.993C37.4356 153.6 32.4467 153.476 30.8467 155.324" stroke="#1F1F1F" stroke-linecap="round" stroke-linejoin="round"/>
<path d="M75.8633 181.497H126.73" stroke="#1F1F1F" stroke-linecap="round" stroke-linejoin="round"/>
</g>
<defs>
<clipPath id="clip0_714_1929">
<rect width="175.863" height="163.754" fill="white" transform="translate(12.0371 18.2227)"/>
</clipPath>
</defs>
</svg>