<svg xmlns="http://www.w3.org/2000/svg" width="200" height="201" viewBox="0 0 200 201" fill="none">
<g clip-path="url(#clip0_714_2512)">
<path d="M117.864 129.543C113.696 127.137 110.195 123.727 107.679 119.624L107.72 119.695C86.1423 120.528 80.7904 117.147 72.8534 105.345C66.7071 104.635 61.0108 106.5 55.8311 109.898C50.1534 113.624 45.0904 119.193 40.7478 125.232C31.4367 138.16 25.3774 153.237 23.4404 156.973C18.7126 166.08 25.1923 174.565 32.1923 174.565H167.526C170.568 174.565 174.264 171.441 174.235 165.817C174.174 154.637 166.67 132.563 156.731 119.619C153.392 125.073 148.331 129.259 142.348 131.516C136.365 133.774 129.8 133.974 123.69 132.085" fill="#C2E7FF"/>
<path d="M117.864 129.543C113.696 127.137 110.195 123.727 107.679 119.624L107.72 119.695C86.1423 120.528 80.7904 117.147 72.8534 105.345C66.7071 104.635 61.0108 106.5 55.8311 109.898C50.1534 113.624 45.0904 119.193 40.7478 125.232C31.4367 138.16 25.3774 153.237 23.4404 156.973C18.7126 166.08 25.1923 174.565 32.1923 174.565H167.526C170.568 174.565 174.264 171.441 174.235 165.817C174.174 154.637 166.67 132.563 156.731 119.619C153.392 125.073 148.331 129.259 142.348 131.516C136.365 133.774 129.8 133.974 123.69 132.085" stroke="#C2E7FF" stroke-width="0.833333" stroke-linecap="round" stroke-linejoin="round"/>
<path d="M101.141 167.552L101.467 167.704" stroke="#C2E7FF" stroke-width="0.833333" stroke-linecap="round" stroke-linejoin="round"/>
<path d="M100.339 167.171L100.824 167.404" stroke="#C2E7FF" stroke-width="0.833333" stroke-linecap="round" stroke-linejoin="round"/>
<path d="M102.111 168L101.889 167.898" stroke="#C2E7FF" stroke-width="0.833333" stroke-linecap="round" stroke-linejoin="round"/>
<path d="M135.774 76.1165C130.399 75.4431 124.943 76.3027 120.035 78.596C115.127 80.8894 110.968 84.5232 108.036 89.0784C105.104 93.6336 103.519 98.9247 103.464 104.342C103.41 109.759 104.887 115.081 107.726 119.694C86.1483 120.528 80.7964 117.146 72.8594 105.344C72.8594 105.344 77.2372 105.568 81.4594 104.32C85.7409 103.059 89.8612 100.283 89.0816 94.2257C87.9705 85.6165 88.3297 78.4202 90.1612 72.7442C90.7473 70.8717 91.5595 69.0776 92.5797 67.4016C92.6964 67.2165 92.8186 67.0183 92.9501 66.8313L93.1835 66.4868C97.289 60.5442 104.08 57.4424 113.57 57.4424C124.085 57.4424 134.385 64.3294 135.75 75.8979C135.759 75.9739 135.767 76.0424 135.774 76.1165Z" fill="#9B402D" stroke="#9B402D" stroke-width="0.833333" stroke-linecap="round" stroke-linejoin="round"/>
<path d="M104.911 85.689C105.724 84.8769 106.792 84.3686 107.935 84.249C109.078 84.1293 110.227 84.4056 111.191 85.0315" stroke="#1F1F1F" stroke-linecap="round" stroke-linejoin="round"/>
<path d="M182.95 174.568H26.874" stroke="#1F1F1F" stroke-linecap="round" stroke-linejoin="round"/>
<path d="M100.193 144.766H84.3389L84.3111 144.805L76.4648 144.787C77.1093 140.105 79.0722 136.102 81.7741 133.6C83.663 131.85 85.913 130.835 88.3297 130.835C92.4482 130.835 96.0852 133.785 98.2704 138.291C98.3722 138.502 98.4723 138.716 98.5667 138.935C98.6111 139.031 98.6519 139.12 98.6926 139.228C98.694 139.233 98.694 139.239 98.6926 139.244C98.7371 139.347 98.7797 139.45 98.8204 139.555C98.95 139.874 99.0735 140.199 99.1908 140.531C99.2241 140.628 99.2556 140.716 99.2889 140.824C99.3222 140.931 99.3704 141.074 99.4074 141.194C99.4445 141.315 99.4759 141.416 99.5074 141.529C99.5389 141.642 99.5648 141.724 99.5908 141.822C99.6167 141.92 99.6593 142.072 99.6908 142.192C99.7223 142.313 99.7648 142.489 99.8 142.639C99.8352 142.789 99.863 142.909 99.8908 143.046C99.9593 143.365 100.022 143.689 100.076 144.015C100.12 144.272 100.157 144.518 100.193 144.766Z" fill="black" stroke="black" stroke-width="0.833333" stroke-miterlimit="10"/>
<path d="M147.532 55.7152C153.946 55.7152 159.145 50.5159 159.145 44.1022C159.145 37.6886 153.946 32.4893 147.532 32.4893C141.118 32.4893 135.919 37.6886 135.919 44.1022C135.919 50.5159 141.118 55.7152 147.532 55.7152Z" fill="#C4EED0" stroke="#C4EED0" stroke-width="0.833333" stroke-linecap="round" stroke-linejoin="round"/>
<path d="M180.113 65.2334H164.461C162.894 65.2334 161.624 66.5036 161.624 68.0704V83.7223C161.624 85.2891 162.894 86.5593 164.461 86.5593H180.113C181.68 86.5593 182.95 85.2891 182.95 83.7223V68.0704C182.95 66.5036 181.68 65.2334 180.113 65.2334Z" fill="#F7B804" stroke="#F7B804" stroke-width="0.833333" stroke-linecap="round" stroke-linejoin="round"/>
<path d="M94.6519 144.766C94.1408 148.583 92.5593 153.618 90.063 158.855C89.6852 159.648 89.2988 160.42 88.9037 161.17C84.3111 169.913 78.7408 175.703 75.9704 174.381C73.7111 173.303 73.9537 167.809 76.2334 160.9C77.0577 158.427 78.0361 156.008 79.163 153.657C80.6264 150.549 82.3583 147.575 84.3389 144.768C87.8223 139.911 91.2611 137.176 93.2556 138.133C94.6908 138.816 95.1167 141.285 94.6519 144.766Z" fill="black" stroke="black" stroke-width="0.833333" stroke-miterlimit="10"/>
<path d="M104.322 111.607L97.3945 105.194" stroke="#1F1F1F" stroke-linecap="round" stroke-linejoin="round"/>
<path d="M90.5459 131.126L160.944 148.17" stroke="#1F1F1F" stroke-linecap="round" stroke-linejoin="round"/>
<path d="M100.202 144.844L68.372 144.767C68.372 144.767 65.5627 150.643 63.1868 156.087C60.8108 161.532 56.8312 161.848 58.6794 156.224C56.1423 163.293 52.7775 160.696 53.1238 158.596C50.7164 162.043 48.609 161.206 49.1201 157.104C49.9386 150.502 53.5868 130.665 73.0312 131.859C75.1886 131.893 78.3497 132.6 81.7682 133.598C86.609 135.009 93.609 136.883 98.2645 138.289C99.2524 140.358 99.9061 142.571 100.202 144.844Z" fill="#9B402D" stroke="#1F1F1F" stroke-linecap="round" stroke-linejoin="round"/>
<path d="M67.4051 139.837C67.4051 139.837 63.1236 143.45 62.4051 145.13C61.6866 146.809 58.6699 156.222 58.6699 156.222" stroke="#1F1F1F" stroke-linecap="round" stroke-linejoin="round"/>
<path d="M62.4074 138.645C62.4074 138.645 57.7222 143.391 56.9203 145.032C56.1185 146.672 53.0889 158.643 53.0889 158.643" stroke="#1F1F1F" stroke-linecap="round" stroke-linejoin="round"/>
<path d="M58.1903 136.566C56.0403 138.485 54.394 140.826 53.1329 143.257L50.7958 143.674C45.0754 144.6 42.1773 141.792 47.6162 140.211C51.5403 139.068 56.0366 137.392 58.1903 136.566Z" fill="#9B402D" stroke="#1F1F1F" stroke-linecap="round" stroke-linejoin="round"/>
<path d="M102.682 168.258L101.785 169.802C101.632 170.066 101.428 170.298 101.185 170.483C100.943 170.669 100.666 170.804 100.37 170.883C100.075 170.961 99.767 170.98 99.4643 170.939C99.1615 170.899 98.8697 170.798 98.6057 170.645L97.1724 169.811C96.9082 169.658 96.6767 169.455 96.4913 169.212C96.3059 168.969 96.17 168.693 96.0916 168.398C96.0132 168.102 95.9937 167.795 96.0342 167.492C96.0748 167.189 96.1746 166.898 96.3279 166.634L96.9835 165.506C98.9168 166.495 100.928 167.482 102.682 168.258Z" fill="white" stroke="#1F1F1F" stroke-linecap="round" stroke-linejoin="round"/>
<path d="M114.454 160.275C115.646 162.923 115.795 168.112 109.071 165.115C109.071 165.115 110.508 170.597 106.513 169.68C102.311 168.715 89.1057 161.286 88.9039 161.162L76.2354 160.893C77.0597 158.42 78.0381 156.001 79.165 153.651C80.6284 150.543 82.3603 147.568 84.3409 144.762H108.641L112.087 148.095C114.037 147.354 115.361 147.643 115.976 149.091C118.106 152.428 122.209 159.423 114.454 160.275Z" fill="#9B402D" stroke="#1F1F1F" stroke-linecap="round" stroke-linejoin="round"/>
<path d="M114.454 160.272C110.546 159.617 107.156 157.939 103.196 155.607" stroke="#1F1F1F" stroke-linecap="round" stroke-linejoin="round"/>
<path d="M109.072 165.113C105.62 163.735 104.185 163.283 100.426 160.804" stroke="#1F1F1F" stroke-linecap="round" stroke-linejoin="round"/>
<path d="M125.282 129.336L111.489 153.091L105.787 150.347L119.826 126.169L125.282 129.336Z" fill="white" stroke="#1F1F1F" stroke-linecap="round" stroke-linejoin="round"/>
<path d="M112.808 153.724L111.489 153.091L105.787 150.346L104.398 149.678" stroke="#1F1F1F" stroke-linecap="round" stroke-linejoin="round"/>
<path d="M132.208 133.371C148.079 133.371 160.945 120.505 160.945 104.634C160.945 88.7625 148.079 75.8965 132.208 75.8965C116.337 75.8965 103.471 88.7625 103.471 104.634C103.471 120.505 116.337 133.371 132.208 133.371Z" fill="white" stroke="#191C1E" stroke-linecap="round" stroke-linejoin="round"/>
<path d="M154.932 104.635C154.926 109.367 153.44 113.979 150.684 117.825C147.928 121.672 144.038 124.561 139.559 126.088C135.08 127.615 130.236 127.703 125.704 126.342C121.172 124.98 117.179 122.236 114.284 118.493C111.388 114.75 109.735 110.196 109.555 105.468C109.376 100.739 110.678 96.0723 113.282 92.1205C115.885 88.1687 119.658 85.1294 124.073 83.4276C128.489 81.7259 133.326 81.4468 137.908 82.6294C142.782 83.8926 147.1 86.7392 150.181 90.7223C153.262 94.7053 154.933 99.5991 154.932 104.635Z" fill="white" stroke="#1F1F1F" stroke-linecap="round" stroke-linejoin="round"/>
<path d="M152.509 114.863C150.588 118.679 147.63 121.876 143.975 124.089C140.32 126.301 136.115 127.439 131.843 127.371C127.571 127.304 123.405 126.034 119.822 123.707C116.238 121.381 113.383 118.091 111.583 114.217L126.3 103.587C128.285 103.632 130.263 103.842 132.213 104.217C134.377 104.607 136.508 105.164 138.587 105.883C143.216 107.485 148.353 110.217 152.509 114.863Z" fill="#C2E7FF" stroke="#1F1F1F" stroke-linecap="round" stroke-linejoin="round"/>
<path d="M132.222 104.209L128.011 117.826C128.011 117.826 135.639 110.689 138.596 105.872" fill="black"/>
<path d="M132.222 104.209L128.011 117.826C128.011 117.826 135.639 110.689 138.596 105.872" stroke="black" stroke-width="0.833333" stroke-miterlimit="10"/>
<path d="M138.078 82.8562C136.137 111.61 128.819 123.01 116.919 121.449C113.166 118.03 110.665 113.453 109.815 108.447C108.965 103.442 109.815 98.2961 112.23 93.8301C114.645 89.364 118.485 85.8348 123.139 83.805C127.793 81.7753 132.992 81.3617 137.908 82.6303L138.078 82.8562Z" fill="#9B402D" stroke="#1F1F1F" stroke-linecap="round" stroke-linejoin="round"/>
<path d="M128.402 94.2264C128.728 94.2264 128.991 93.8218 128.991 93.3226C128.991 92.8235 128.728 92.4189 128.402 92.4189C128.077 92.4189 127.813 92.8235 127.813 93.3226C127.813 93.8218 128.077 94.2264 128.402 94.2264Z" fill="#1F1F1F" stroke="#1F1F1F" stroke-linecap="round" stroke-linejoin="round"/>
<path d="M120.22 95.7148C119.085 101.935 122.209 109.174 122.209 109.174L117.909 108.382" stroke="#1F1F1F" stroke-linecap="round" stroke-linejoin="round"/>
<path d="M132.983 86.9597C132.493 86.4541 131.901 86.0575 131.246 85.7958C130.592 85.534 129.89 85.4129 129.186 85.4403C128.482 85.4678 127.792 85.6431 127.16 85.9549C126.528 86.2668 125.969 86.7082 125.519 87.2504" stroke="#1F1F1F" stroke-linecap="round" stroke-linejoin="round"/>
<path d="M120.061 36.0111C113.917 39.4426 107.737 42.7908 104.713 53.6037C93.7595 25.6278 51.4577 2.1704 16.8984 79.1019" stroke="#1F1F1F" stroke-linecap="round" stroke-linejoin="round"/>
<path d="M23.4463 156.973C18.7185 166.08 25.1981 174.565 32.1981 174.565" stroke="#1F1F1F" stroke-linecap="round" stroke-linejoin="round"/>
<path d="M107.685 119.624L107.726 119.695C86.1483 120.528 80.7964 117.147 72.8594 105.345" stroke="#1F1F1F" stroke-linecap="round" stroke-linejoin="round"/>
<path d="M135.75 75.8962C134.385 64.3277 124.083 57.4407 113.57 57.4407C105.722 57.4407 99.7239 59.5629 95.5591 63.6574C95.5739 63.3759 95.5813 63.1018 95.5813 62.8092C95.5807 60.2949 95.0055 57.8141 93.8998 55.556C92.794 53.298 91.1869 51.3224 89.2012 49.7803C87.2154 48.2381 84.9035 47.1701 82.442 46.6577C79.9805 46.1454 77.4345 46.2023 74.9983 46.8242C72.5622 47.446 70.3003 48.6162 68.3854 50.2456C66.4706 51.875 64.9534 53.9203 63.9496 56.2256C62.9459 58.5308 62.4822 61.0349 62.5939 63.5467C62.7057 66.0584 63.3899 68.5115 64.5943 70.7185C60.9213 68.6568 56.599 68.0777 52.5129 69.0998C48.4268 70.1219 44.8861 72.6678 42.6163 76.2159C40.3466 79.764 39.5195 84.0458 40.3045 88.184C41.0895 92.3222 43.4272 96.0036 46.8387 98.474C40.6702 99.7314 28.235 103.185 25.8869 110.902C22.7387 121.246 60.198 132.646 63.3461 122.302C65.5165 115.17 58.4998 106.259 53.9332 101.413C56.2895 101.787 58.6989 101.645 60.9953 100.998C63.2916 100.351 65.4205 99.2138 67.2351 97.6649C69.0498 96.116 70.5072 94.1922 71.5068 92.0259C72.5065 89.8596 73.0247 87.5024 73.0258 85.1166C73.0305 82.3526 72.3375 79.6322 71.011 77.2074C73.8738 78.8104 77.1495 79.5237 80.4196 79.2562C83.6898 78.9886 86.806 77.7525 89.3702 75.7055C88.2591 80.8592 88.1535 87.0481 89.0776 94.224C89.8572 100.281 85.7443 103.057 81.4554 104.318C81.4554 104.318 100.309 103.422 97.1443 84.9518C95.4776 75.2074 104.391 73.4037 106.491 81.9074C113.492 72.1407 117.991 74.3574 122.624 77.5277C126.839 76.0478 131.339 75.5642 135.772 76.1148C135.767 76.0425 135.759 75.974 135.75 75.8962Z" fill="#3C4043" stroke="#191C1E" stroke-linecap="round" stroke-linejoin="round"/>
<path d="M180.113 65.2334H164.461C162.894 65.2334 161.624 66.5036 161.624 68.0704V83.7223C161.624 85.2891 162.894 86.5593 164.461 86.5593H180.113C181.68 86.5593 182.95 85.2891 182.95 83.7223V68.0704C182.95 66.5036 181.68 65.2334 180.113 65.2334Z" fill="#F7B804" stroke="#F7B804" stroke-width="0.833333" stroke-linecap="round" stroke-linejoin="round"/>
<path d="M182.95 83.7223V68.0704C182.95 67.318 182.651 66.5964 182.119 66.0643C181.587 65.5323 180.866 65.2334 180.113 65.2334" stroke="#1F1F1F" stroke-linecap="round" stroke-linejoin="round"/>
<path d="M135.913 44.1023C135.913 42.5775 136.213 41.0677 136.797 39.6589C137.38 38.2502 138.236 36.9702 139.314 35.892C140.392 34.8138 141.672 33.9586 143.081 33.3751C144.49 32.7915 145.999 32.4912 147.524 32.4912" stroke="#1F1F1F" stroke-linecap="round" stroke-linejoin="round"/>
</g>
<defs>
<clipPath id="clip0_714_2512">
<rect width="166.885" height="148.393" fill="white" transform="translate(16.4814 26.5928)"/>
</clipPath>
</defs>
</svg>