<svg xmlns="http://www.w3.org/2000/svg" width="200" height="201" viewBox="0 0 200 201" fill="none">
<g clip-path="url(#clip0_714_2662)">
<path d="M122.404 158.665C122.424 158.6 122.441 158.534 122.455 158.467C122.455 158.443 122.455 158.417 122.468 158.395C122.481 158.373 122.483 158.304 122.489 158.258V158.187C122.489 158.134 122.489 158.078 122.489 158.024V157.987C122.489 157.913 122.489 157.837 122.489 157.762C123.563 141.947 125.731 132.576 123.859 128.687C123.409 127.629 123.053 126.533 122.796 125.412C122.828 120.828 131.709 118.243 128.567 113.745C128.408 113.518 128.316 113.252 128.299 112.976C128.283 112.699 128.343 112.424 128.474 112.18C130.685 107.965 128.359 105.63 125.263 105.819C123.487 93.3374 116.652 87.2078 115.698 86.4097C115.626 86.3467 115.587 86.3171 115.587 86.3171V86.3041C116.421 85.2254 117.111 84.0426 117.639 82.7856C118.161 83.2689 118.678 83.7782 119.181 84.2819C124.752 89.8152 129.2 94.6171 129.765 57.3967V56.9634C129.765 56.8319 129.765 56.6967 129.765 56.5615H134.939C134.939 56.6634 134.922 56.7652 134.917 56.8652C134.873 57.3874 134.832 57.9035 134.792 58.4134C131.187 105.336 139.667 98.7041 148.191 83.2393C148.267 83.1041 148.341 82.9671 148.417 82.83C149.273 83.029 150.15 83.1297 151.03 83.13H153.148C152.93 83.7078 152.712 84.2844 152.496 84.8597C145.265 104.026 138.848 120.549 141.526 125.045L153.192 116.724C153.606 117.836 154.166 118.886 154.859 119.849C154.457 120.21 154.063 120.567 153.683 120.923C138.181 135.312 139.126 144.789 139.128 150.308C139.128 155.971 139.128 175.895 139.128 175.895" stroke="#1F1F1F" stroke-linecap="round" stroke-linejoin="round"/>
<path d="M78.6867 135.159C79.9231 135.016 80.6828 132.806 80.3836 130.224C80.0843 127.641 78.8394 125.664 77.603 125.807C76.3666 125.95 75.6069 128.16 75.9061 130.743C76.2054 133.325 77.4503 135.302 78.6867 135.159Z" fill="#1F1F1F" stroke="#1F1F1F" stroke-width="0.833333"/>
<path d="M73.9541 137.55C76.6615 133.184 79.6763 128.943 83.1726 128.106C83.3152 127.524 83.3856 127.18 83.3856 127.18C75.7819 126.424 74.9504 129.773 68.693 139.158C68.693 139.158 68.4541 140.713 68.4541 140.717L71.9726 140.469L73.9541 137.55Z" fill="#F6D7C0" stroke="#191C1E" stroke-width="0.833333"/>
<path d="M99.443 144.75L101 147.28L105.336 135.391L103.558 135.206L96.1504 139.697C97.7856 142.18 98.806 143.754 99.443 144.75Z" fill="white" stroke="#1F1F1F" stroke-linecap="round" stroke-linejoin="round"/>
<path d="M117.352 152.067C116.618 155.166 115.722 158.225 114.669 161.23C118.78 161.445 121.813 160.56 122.404 158.666C122.995 156.771 120.949 154.251 117.352 152.067Z" fill="#1F1F1F" stroke="#1F1F1F" stroke-width="0.833333"/>
<path d="M43.665 164.127C45.1566 165.108 46.5517 166.228 47.8316 167.473C49.2023 168.772 50.4365 170.208 51.515 171.758C51.652 171.958 51.7779 172.154 51.9002 172.349C53.589 171.678 55.4372 170.534 57.2353 168.304C55.6094 167.178 54.7261 166.069 55.0131 165.293C55.0655 165.151 55.152 165.024 55.265 164.923L73.9576 137.54C74.2847 137.011 74.6144 136.49 74.9465 135.977C74.8613 136.04 38.9724 162.177 38.3779 162.534C39.3353 161.98 41.3372 162.623 43.665 164.127Z" fill="#C2E7FF" stroke="#C2E7FF" stroke-width="0.833333"/>
<path d="M101.001 147.28L99.4441 144.75C98.4182 143.147 96.4033 140.05 92.4422 134.091C84.6219 122.324 78.8015 129.739 73.9552 137.55L55.2607 164.945C56.3348 163.939 60.1756 164.278 64.3996 165.817C68.8107 167.426 72.0607 169.773 71.9644 171.223L82.3144 150.313C82.3144 150.313 92.5163 175.848 102.264 175.885C106.466 175.902 110.398 173.528 114.672 161.23C115.725 158.224 116.621 155.166 117.355 152.067C115.668 137.082 110.155 135.702 101.001 147.28Z" fill="#C2E7FF" stroke="#C2E7FF" stroke-width="0.833333"/>
<path d="M53.2962 175.886H47.9258C47.2073 175.45 46.5142 174.974 45.8499 174.46C44.9449 173.768 44.0794 173.026 43.2573 172.238C41.7946 170.848 40.4903 169.301 39.3684 167.625C37.9203 165.402 37.3832 163.53 38.1462 162.736C38.9777 161.873 41.1332 162.491 43.674 164.134C45.1655 165.115 46.5607 166.236 47.8406 167.48C49.2077 168.777 50.4387 170.211 51.5147 171.758C51.6517 171.958 51.7777 172.154 51.8999 172.349C52.774 173.751 53.2721 174.988 53.2962 175.886Z" fill="#1F1F1F" stroke="#1F1F1F" stroke-width="0.833333"/>
<path d="M53.2968 175.886H24.7783C25.9579 171.738 30.8024 173.664 39.3524 167.618C40.8601 166.547 42.2982 165.381 43.658 164.127C45.1495 165.108 46.5447 166.229 47.8246 167.473C49.1979 168.772 50.4346 170.208 51.5154 171.758C51.6524 171.958 51.7783 172.155 51.9005 172.349C52.7746 173.751 53.2728 174.988 53.2968 175.886Z" fill="white" stroke="#1F1F1F" stroke-width="0.833333"/>
<path d="M82.3097 150.313L77.7949 159.436C89.3208 173.66 93.5894 175.886 100.5 175.613C91.3245 172.869 82.3097 150.313 82.3097 150.313Z" fill="#C2E7FF" stroke="#C2E7FF" stroke-width="0.833333"/>
<path d="M71.9116 171.462C72.4279 170.047 69.0632 167.52 64.3965 165.817C59.7298 164.115 55.5281 163.882 55.0119 165.298C54.4957 166.713 57.8603 169.24 62.527 170.943C67.1937 172.645 71.3954 172.877 71.9116 171.462Z" fill="#1F1F1F" stroke="#1F1F1F" stroke-width="0.833333"/>
<path d="M122.404 158.666C122.404 158.666 122.438 158.347 122.497 157.771C122.525 158.073 122.494 158.377 122.404 158.666Z" fill="white" stroke="#1F1F1F" stroke-width="0.833333"/>
<path d="M122.804 125.403C122.835 120.819 131.717 118.234 128.574 113.736C128.416 113.509 128.324 113.243 128.308 112.967C128.292 112.69 128.352 112.415 128.482 112.171C131.53 106.36 125.956 104.121 121.63 107.145C121.259 107.4 120.832 107.561 120.386 107.614C119.939 107.667 119.487 107.611 119.067 107.451C114.45 105.732 111.27 109.814 115.47 113.29C118.924 116.156 122.804 125.403 122.804 125.403Z" fill="#A73E22" stroke="#202124" stroke-width="0.833333"/>
<path d="M123.868 128.681C123.868 128.681 121.302 122.981 123.074 119.672C124.959 116.153 122.704 114.42 120.128 117.853C120.128 117.853 117.465 117.377 120.128 113.809C122.791 110.24 115.463 113.294 115.463 113.294L112.339 117.907C112.339 117.907 112.683 118.147 113.422 118.635C112.733 121.968 113.865 122.981 115.594 123.286L113.187 128.472L123.868 128.681Z" fill="#F6D7C0" stroke="#191C1E" stroke-width="0.833333"/>
<path d="M105.337 135.392L115.448 136.582" stroke="#1F1F1F" stroke-width="0.833333"/>
<path d="M116.582 116.584V116.628" stroke="#1F1F1F" stroke-linecap="round" stroke-linejoin="round"/>
<path d="M115.595 123.286C115.595 123.286 117.189 123.4 118.258 122.849L115.595 123.286Z" fill="#FF8A69"/>
<path d="M115.595 123.286C115.595 123.286 117.189 123.4 118.258 122.849" stroke="#1F1F1F" stroke-width="0.833333"/>
<path d="M92.4406 134.091L105.335 135.388L101.002 147.28C103.615 147.304 106.742 147.813 110.013 148.834C112.58 149.615 115.044 150.701 117.354 152.067C120.407 153.919 122.354 156.001 122.498 157.762C123.915 136.88 127.244 127.232 120.661 126.58C115.444 126.062 81.1017 125.839 77.8535 125.813C78.898 125.925 79.9054 127.48 80.2905 129.582C83.7646 126.876 87.7424 127.021 92.4406 134.091Z" fill="white" stroke="#1F1F1F" stroke-linecap="round" stroke-linejoin="round"/>
<path d="M55.2612 164.947L55.0205 165.299C55.0708 165.164 55.1534 165.043 55.2612 164.947Z" fill="white" stroke="#1F1F1F" stroke-width="0.833333"/>
<path d="M69.1912 168.123L67.1838 172.197L65.3634 175.89H45.3301C45.6319 171.738 51.6764 175.212 57.2356 168.316C58.1592 167.148 58.9609 165.888 59.6282 164.557C61.2541 164.824 62.8504 165.248 64.3949 165.821C66.0702 166.418 67.6779 167.189 69.1912 168.123Z" fill="white" stroke="#1F1F1F" stroke-width="0.833333"/>
<path d="M100.5 146.466L105.737 155.555" stroke="#1F1F1F" stroke-width="0.833333"/>
<path d="M175.713 71.5263C175.713 74.6057 174.49 77.559 172.313 79.7365C170.135 81.9141 167.182 83.1374 164.102 83.1374H151.03C147.951 83.1374 144.997 81.9141 142.82 79.7365C140.642 77.559 139.419 74.6057 139.419 71.5263C139.419 68.4471 140.643 65.4943 142.82 63.3172C144.998 61.14 147.951 59.917 151.03 59.917H164.102C167.181 59.917 170.134 61.14 172.312 63.3172C174.489 65.4943 175.713 68.4471 175.713 71.5263Z" fill="#C4EED0" stroke="#C4EED0" stroke-width="0.833333" stroke-linecap="round" stroke-linejoin="round"/>
<path d="M102.26 175.886C92.5114 175.849 82.3096 150.313 82.3096 150.313" stroke="#1F1F1F" stroke-width="0.833333"/>
<path d="M102.259 175.886C92.5108 175.849 82.309 150.313 82.309 150.313L71.959 171.223" stroke="#1F1F1F" stroke-width="0.833333"/>
<path d="M55.2607 164.945L73.9644 137.55C78.8107 129.739 84.6311 122.324 92.4515 134.091C100.313 145.917 100.511 146.465 100.511 146.465" stroke="#1F1F1F" stroke-width="0.833333"/>
<path d="M159.973 175.9H20.9727" stroke="#1F1F1F" stroke-linecap="round" stroke-linejoin="round"/>
<path d="M102.26 175.886C92.5114 175.849 82.3096 150.313 82.3096 150.313" stroke="#1F1F1F" stroke-linecap="round" stroke-linejoin="round"/>
<path d="M102.259 175.886C92.5108 175.849 82.309 150.313 82.309 150.313L71.959 171.223" stroke="#1F1F1F" stroke-linecap="round" stroke-linejoin="round"/>
<path d="M55.2607 164.945L73.9644 137.55C78.8107 129.739 84.6311 122.324 92.4515 134.091C100.313 145.917 100.511 146.465 100.511 146.465" stroke="#1F1F1F" stroke-linecap="round" stroke-linejoin="round"/>
<path d="M101.002 147.28C103.615 147.304 106.743 147.814 110.013 148.834C112.58 149.615 115.045 150.701 117.354 152.067C120.95 154.251 123.006 156.747 122.406 158.665" stroke="#1F1F1F" stroke-linecap="round" stroke-linejoin="round"/>
<path d="M139.419 71.5264C139.419 74.6058 140.642 77.5592 142.82 79.7367C144.997 81.9142 147.951 83.1375 151.03 83.1375H156.187" stroke="#1F1F1F" stroke-linecap="round" stroke-linejoin="round"/>
<path d="M173.165 40.6733C173.165 42.7593 172.754 44.8248 171.956 46.752C171.157 48.6792 169.987 50.4302 168.512 51.9051C167.037 53.3801 165.286 54.55 163.359 55.3481C161.431 56.1462 159.366 56.5568 157.28 56.5566H93.2593C89.0468 56.5566 85.0068 54.8832 82.0281 51.9045C79.0494 48.9258 77.376 44.8858 77.376 40.6733C77.376 36.4606 79.0493 32.4204 82.028 29.4414C85.0066 26.4624 89.0466 24.7886 93.2593 24.7881H157.28C161.493 24.7881 165.533 26.4617 168.512 29.4407C171.491 32.4198 173.165 36.4603 173.165 40.6733Z" fill="#C4EED0" stroke="#C4EED0" stroke-width="0.833333" stroke-linecap="round" stroke-linejoin="round"/>
<path d="M93.2598 24.7881H157.28C161.493 24.7881 165.534 26.4617 168.513 29.4407C171.492 32.4198 173.165 36.4603 173.165 40.6733" stroke="#1F1F1F" stroke-linecap="round" stroke-linejoin="round"/>
<path d="M103.119 92.4471C111.819 92.4471 118.871 85.3947 118.871 76.6952C118.871 67.9957 111.819 60.9434 103.119 60.9434C94.4195 60.9434 87.3672 67.9957 87.3672 76.6952C87.3672 85.3947 94.4195 92.4471 103.119 92.4471Z" fill="#C4EED0" stroke="#C4EED0" stroke-width="0.833333" stroke-linecap="round" stroke-linejoin="round"/>
<path d="M87.3652 76.6951C87.3652 72.517 89.025 68.51 91.9794 65.5556C94.9338 62.6012 98.9408 60.9414 103.119 60.9414" stroke="#1F1F1F" stroke-linecap="round" stroke-linejoin="round"/>
<path d="M165.696 125.421C173.066 125.421 179.04 119.447 179.04 112.077C179.04 104.707 173.066 98.7324 165.696 98.7324C158.326 98.7324 152.352 104.707 152.352 112.077C152.352 119.447 158.326 125.421 165.696 125.421Z" fill="#C4EED0" stroke="#C4EED0" stroke-width="0.833333" stroke-linecap="round" stroke-linejoin="round"/>
<path d="M165.694 98.7324C169.234 98.7324 172.628 100.138 175.13 102.641C177.633 105.143 179.039 108.538 179.039 112.077" stroke="#1F1F1F" stroke-linecap="round" stroke-linejoin="round"/>
</g>
<defs>
<clipPath id="clip0_714_2662">
<rect width="158.902" height="151.946" fill="white" transform="translate(20.5557 24.3711)"/>
</clipPath>
</defs>
</svg>